<svg xmlns="http://www.w3.org/2000/svg" width="800" height="600" viewBox="0 0 800 600">
  <defs>
    <radialGradient id="bg4" cx="50%" cy="50%" r="70%"><stop offset="0%" stop-color="#1a0f05"/><stop offset="100%" stop-color="#060402"/></radialGradient>
    <radialGradient id="trayGrad" cx="50%" cy="40%" r="65%"><stop offset="0%" stop-color="#8B6914"/><stop offset="100%" stop-color="#5a4209"/></radialGradient>
    <radialGradient id="plateGlow4" cx="50%" cy="50%" r="50%"><stop offset="0%" stop-color="#FF7700" stop-opacity="0.15"/><stop offset="100%" stop-color="#FF7700" stop-opacity="0"/></radialGradient>
  </defs>
  <rect width="800" height="600" fill="url(#bg4)"/>
  <ellipse cx="400" cy="300" rx="380" ry="280" fill="url(#plateGlow4)"/>
  <rect x="60" y="80" width="680" height="460" rx="30" fill="url(#trayGrad)"/>
  <rect x="65" y="85" width="670" height="450" rx="28" fill="#7a5810" opacity="0.6"/>
  <path d="M80 150 Q400 145 720 152" stroke="#6a4808" stroke-width="2" fill="none" opacity="0.4"/>
  <path d="M80 220 Q400 215 720 222" stroke="#6a4808" stroke-width="2" fill="none" opacity="0.3"/>
  <path d="M80 300 Q400 295 720 302" stroke="#6a4808" stroke-width="2" fill="none" opacity="0.3"/>
  <path d="M80 380 Q400 375 720 382" stroke="#6a4808" stroke-width="2" fill="none" opacity="0.4"/>
  <rect x="30" y="260" width="38" height="80" rx="19" fill="#5a4209"/>
  <rect x="732" y="260" width="38" height="80" rx="19" fill="#5a4209"/>
  <g transform="translate(230, 100)">
    <ellipse cx="120" cy="88" rx="110" ry="80" fill="#A0522D"/>
    <ellipse cx="120" cy="84" rx="108" ry="77" fill="#CD853F"/>
    <circle cx="80" cy="75" r="18" fill="#5C2A00" opacity="0.7"/>
    <circle cx="155" cy="80" r="15" fill="#5C2A00" opacity="0.6"/>
    <path d="M40 90 Q120 80 200 92" stroke="#3a1a00" stroke-width="6" fill="none" opacity="0.7"/>
    <path d="M35 108 Q120 98 205 110" stroke="#3a1a00" stroke-width="5" fill="none" opacity="0.6"/>
    <ellipse cx="62" cy="145" rx="22" ry="37" fill="#CD853F" transform="rotate(-20 62 145)"/>
    <ellipse cx="178" cy="147" rx="22" ry="35" fill="#CD853F" transform="rotate(20 178 147)"/>
    <ellipse cx="50" cy="175" rx="8" ry="5" fill="#DDD"/>
    <ellipse cx="192" cy="177" rx="8" ry="5" fill="#DDD"/>
    <ellipse cx="90" cy="70" rx="45" ry="20" fill="#FFD700" opacity="0.15"/>
  </g>
  <g transform="translate(90, 230)">
    <path d="M0 18 Q40 -2 90 8 Q110 13 105 43 Q100 68 65 63 Q25 70 0 48 Z" fill="#8B3A00"/>
    <path d="M10 10 Q50 3 90 12" stroke="#2a1000" stroke-width="5" fill="none" opacity="0.7"/>
    <path d="M12 30 Q52 22 92 32" stroke="#2a1000" stroke-width="5" fill="none" opacity="0.7"/>
    <ellipse cx="5" cy="30" rx="7" ry="4" fill="#DDD"/>
    <path d="M15 80 Q50 62 97 72 Q117 77 113 105 Q108 130 73 126 Q35 133 15 110 Z" fill="#8B3A00"/>
    <path d="M20 70 Q60 62 100 72" stroke="#2a1000" stroke-width="5" fill="none" opacity="0.7"/>
    <path d="M20 90 Q60 82 100 92" stroke="#2a1000" stroke-width="5" fill="none" opacity="0.7"/>
  </g>
  <g transform="translate(480, 110)">
    <ellipse cx="110" cy="68" rx="103" ry="63" fill="#3a3828"/>
    <ellipse cx="80" cy="55" rx="4" ry="2" fill="#F5F0E0" transform="rotate(30 80 55)"/>
    <ellipse cx="100" cy="48" rx="4" ry="2" fill="#F5F0E0" transform="rotate(-15 100 48)"/>
    <ellipse cx="125" cy="52" rx="4" ry="2" fill="#F5F0E0" transform="rotate(20 125 52)"/>
    <ellipse cx="145" cy="60" rx="4" ry="2" fill="#F5F0E0" transform="rotate(-30 145 60)"/>
    <ellipse cx="90" cy="70" rx="4" ry="2" fill="#F5F0E0" transform="rotate(10 90 70)"/>
    <ellipse cx="115" cy="75" rx="4" ry="2" fill="#F5F0E0" transform="rotate(-20 115 75)"/>
    <circle cx="88" cy="62" r="3" fill="#228B22"/>
    <circle cx="118" cy="57" r="3" fill="#228B22"/>
    <circle cx="130" cy="78" r="3" fill="#FF6600"/>
  </g>
  <g transform="translate(490, 290)">
    <ellipse cx="80" cy="24" rx="78" ry="28" fill="#3a3828"/>
    <rect x="20" y="-38" width="10" height="62" rx="5" fill="#F4B400"/>
    <rect x="35" y="-40" width="10" height="65" rx="5" fill="#FFD700"/>
    <rect x="50" y="-25" width="10" height="50" rx="5" fill="#FFD700"/>
    <rect x="65" y="-38" width="10" height="62" rx="5" fill="#F4B400"/>
    <rect x="80" y="-30" width="10" height="55" rx="5" fill="#FFD700"/>
    <rect x="95" y="-35" width="10" height="60" rx="5" fill="#FFD700"/>
    <rect x="110" y="-22" width="10" height="48" rx="5" fill="#FFD700"/>
    <rect x="125" y="-32" width="10" height="57" rx="5" fill="#F4B400"/>
  </g>
  <g transform="translate(280, 380)">
    <rect x="20" y="10" width="95" height="60" rx="30" fill="#FFD700"/>
    <g fill="#DAA520">
      <circle cx="38" cy="28" r="4"/><circle cx="52" cy="28" r="4"/><circle cx="66" cy="28" r="4"/>
      <circle cx="80" cy="28" r="4"/><circle cx="94" cy="28" r="4"/><circle cx="108" cy="28" r="4"/>
      <circle cx="38" cy="40" r="4"/><circle cx="52" cy="40" r="4"/><circle cx="66" cy="40" r="4"/>
      <circle cx="80" cy="40" r="4"/><circle cx="94" cy="40" r="4"/><circle cx="108" cy="40" r="4"/>
      <circle cx="38" cy="52" r="4"/><circle cx="52" cy="52" r="4"/><circle cx="66" cy="52" r="4"/>
      <circle cx="80" cy="52" r="4"/><circle cx="94" cy="52" r="4"/><circle cx="108" cy="52" r="4"/>
    </g>
    <path d="M115 20 Q140 15 145 42 Q140 65 115 62" fill="#228B22" opacity="0.8"/>
    <path d="M20 20 Q-5 15 -10 42 Q-5 65 20 62" fill="#228B22" opacity="0.8"/>
  </g>
  <g transform="translate(470, 400)">
    <ellipse cx="29" cy="30" rx="28" ry="14" fill="#FFB300" transform="rotate(-10 29 30)"/>
    <ellipse cx="74" cy="27" rx="28" ry="14" fill="#FFB300" transform="rotate(8 74 27)"/>
    <ellipse cx="119" cy="33" rx="26" ry="13" fill="#FFB300" transform="rotate(-5 119 33)"/>
    <ellipse cx="30" cy="30" rx="25" ry="11" fill="#FFD040" transform="rotate(-10 30 30)" opacity="0.6"/>
    <ellipse cx="74" cy="27" rx="25" ry="11" fill="#FFD040" transform="rotate(8 74 27)" opacity="0.6"/>
  </g>
  <g transform="translate(100, 400)">
    <ellipse cx="30" cy="18" rx="26" ry="8" fill="#8B0000" opacity="0.9"/>
    <ellipse cx="90" cy="13" rx="26" ry="8" fill="#FFFFF0" opacity="0.9"/>
    <ellipse cx="150" cy="16" rx="26" ry="8" fill="#FF4500" opacity="0.9"/>
  </g>
  <text x="400" y="575" font-family="Arial Black" font-size="20" fill="#FF6B1A" opacity="0.55" text-anchor="middle" letter-spacing="3">BYG JUMBO PLATTER — LAGOS</text>
</svg>