<svg xmlns="http://www.w3.org/2000/svg" width="800" height="600" viewBox="0 0 800 600">
  <defs>
    <radialGradient id="bg3" cx="50%" cy="40%" r="70%"><stop offset="0%" stop-color="#1e1208"/><stop offset="100%" stop-color="#060402"/></radialGradient>
    <radialGradient id="plateGlow3" cx="50%" cy="50%" r="50%"><stop offset="0%" stop-color="#CC7700" stop-opacity="0.2"/><stop offset="100%" stop-color="#CC7700" stop-opacity="0"/></radialGradient>
  </defs>
  <rect width="800" height="600" fill="url(#bg3)"/>
  <ellipse cx="400" cy="320" rx="300" ry="220" fill="url(#plateGlow3)"/>
  <rect x="0" y="440" width="800" height="160" fill="#1a0e06"/>
  <path d="M0 460 Q400 455 800 462" stroke="#2a1a0a" stroke-width="1.5" fill="none" opacity="0.5"/>
  <g transform="translate(150, 130)">
    <path d="M30 20 Q80 0 150 5 Q200 8 220 30 Q235 50 220 280 Q210 350 175 360 Q140 368 105 360 Q70 352 55 310 Q30 240 30 20 Z" fill="#DFA840"/>
    <path d="M60 50 Q120 42 200 55" stroke="#A87020" stroke-width="5" fill="none" opacity="0.6"/>
    <path d="M55 100 Q115 92 205 105" stroke="#A87020" stroke-width="5" fill="none" opacity="0.5"/>
    <path d="M50 160 Q110 150 208 163" stroke="#A87020" stroke-width="4" fill="none" opacity="0.4"/>
    <ellipse cx="125" cy="15" rx="88" ry="14" fill="#C8862A"/>
    <path d="M50 10 Q125 0 200 10 Q195 18 125 22 Q55 18 50 10 Z" fill="#F4C430" opacity="0.9"/>
    <path d="M100 20 Q98 50 95 80" stroke="#FFFFF0" stroke-width="4" fill="none" stroke-linecap="round" opacity="0.8"/>
    <path d="M80 60 Q76 80 74 110" stroke="#F4C430" stroke-width="6" fill="none" stroke-linecap="round"/>
    <path d="M160 65 Q163 88 162 115" stroke="#F4C430" stroke-width="5" fill="none" stroke-linecap="round"/>
  </g>
  <g transform="translate(430, 140)">
    <path d="M32 27 Q80 7 150 12 Q196 15 212 37 Q226 57 212 268 Q202 342 168 352 Q138 360 106 352 Q72 342 56 302 Q34 236 32 27 Z" fill="#D49030"/>
    <path d="M55 55 Q115 47 200 60" stroke="#A06818" stroke-width="5" fill="none" opacity="0.6"/>
    <path d="M52 110 Q112 102 202 115" stroke="#A06818" stroke-width="5" fill="none" opacity="0.5"/>
    <path d="M50 175 Q110 165 200 178" stroke="#A06818" stroke-width="4" fill="none" opacity="0.4"/>
    <ellipse cx="122" cy="22" rx="88" ry="17" fill="#DFA040"/>
    <ellipse cx="90" cy="12" rx="40" ry="10" fill="#FFD070" opacity="0.25"/>
    <path d="M80 25 Q78 10 75 0" stroke="#FFFFF0" stroke-width="5" fill="none" stroke-linecap="round" opacity="0.7"/>
  </g>
  <g transform="translate(600, 270)">
    <rect x="0" y="80" width="85" height="120" rx="6" fill="#CC2200"/>
    <text x="42" y="132" font-family="Arial Black" font-size="11" fill="#FFD700" text-anchor="middle">BYG</text>
    <rect x="10" y="10" width="10" height="80" rx="5" fill="#FFD700"/>
    <rect x="25" y="2" width="10" height="88" rx="5" fill="#FFD700"/>
    <rect x="40" y="6" width="10" height="82" rx="5" fill="#FFD700"/>
    <rect x="55" y="0" width="10" height="90" rx="5" fill="#FFD700"/>
    <rect x="70" y="8" width="10" height="78" rx="5" fill="#FFD700"/>
  </g>
  <g transform="translate(90, 380)">
    <ellipse cx="50" cy="24" rx="48" ry="16" fill="#3a3a3a"/>
    <ellipse cx="50" cy="20" rx="44" ry="12" fill="#FFFFF0" opacity="0.9"/>
    <ellipse cx="42" cy="18" rx="20" ry="7" fill="white" opacity="0.4"/>
  </g>
  <text x="400" y="575" font-family="Arial Black" font-size="20" fill="#FF6B1A" opacity="0.55" text-anchor="middle" letter-spacing="3">BYG SHAWARMA — LAGOS</text>
</svg>